<svg width="64" height="64" viewBox="0 0 64 64" fill="none" xmlns="http://www.w3.org/2000/svg">
<path d="M50.6667 32C50.6667 36.9067 46.6667 40.9067 41.76 40.9067C39.3867 40.9067 37.1733 40 35.4933 38.2933L33.8933 36.6933L36.72 33.8933C37.44 34.6667 38.32 35.4667 38.32 35.4667C39.2267 36.4 40.48 36.9067 41.7867 36.9067C44.48 36.9067 46.6667 34.6667 46.6667 32C46.6667 29.3333 44.48 27.0933 41.7867 27.0933C40.48 27.0933 39.2267 27.6267 38.32 28.5333L28.5333 38.2933C26.8533 40 24.6133 40.9067 22.24 40.9067C17.3333 40.9067 13.3333 36.9067 13.3333 32C13.3333 27.0933 17.3333 23.0933 22.24 23.0933C24.6133 23.0933 26.8533 24 28.5333 25.7067L30.1067 27.3067L27.28 30.1333L25.7067 28.5333C24.7733 27.6267 23.5467 27.0933 22.24 27.0933C19.52 27.0933 17.3333 29.3333 17.3333 32C17.3333 34.6667 19.52 36.9067 22.24 36.9067C23.5467 36.9067 24.7733 36.4 25.7067 35.4667L35.4933 25.7067C37.1733 24 39.3867 23.0933 41.76 23.0933C46.6667 23.0933 50.6667 27.0933 50.6667 32ZM56 13.3333V50.6667C56 53.6267 53.6267 56 50.6667 56H13.3333C10.4 56 8 53.6267 8 50.6667V13.3333C8 10.3733 10.3733 8 13.3333 8H50.6667C53.6 8 56 10.3733 56 13.3333ZM50.6667 13.3333H13.3333V50.6667H50.6667V13.3333Z" fill="white"/>
</svg>
