<svg width="64" height="64" viewBox="0 0 64 64" fill="none" xmlns="http://www.w3.org/2000/svg">
<path d="M40 61.3337H34.6667V56.0003H40V61.3337ZM50.6667 56.0003H45.3333V61.3337H50.6667V56.0003ZM40 45.3337H34.6667V50.667H40V45.3337ZM18.6667 56.0003H13.3333V61.3337H18.6667V56.0003ZM18.6667 45.3337H13.3333V50.667H18.6667V45.3337ZM50.6667 45.3337H45.3333V50.667H50.6667V45.3337ZM40 34.667H34.6667V40.0003H40V34.667ZM50.6667 34.667H45.3333V40.0003H50.6667V34.667ZM56 24.0003C57.4145 24.0003 58.771 24.5622 59.7712 25.5624C60.7714 26.5626 61.3333 27.9192 61.3333 29.3337V61.3337H56V29.3337H29.3333V61.3337H24V40.0003H7.99999V61.3337H2.66666V40.0003C2.66666 38.5858 3.22856 37.2293 4.22875 36.2291C5.22895 35.2289 6.5855 34.667 7.99999 34.667H24V29.3337C24 27.9192 24.5619 26.5626 25.5621 25.5624C26.5623 24.5622 27.9188 24.0003 29.3333 24.0003V18.667C29.3333 17.2525 29.8952 15.896 30.8954 14.8958C31.8956 13.8956 33.2522 13.3337 34.6667 13.3337H40V2.66699H45.3333V13.3337H50.6667C52.0811 13.3337 53.4377 13.8956 54.4379 14.8958C55.4381 15.896 56 17.2525 56 18.667V24.0003ZM50.6667 24.0003V18.667H34.6667V24.0003H50.6667Z" fill="white"/>
</svg>
