<svg width="64" height="64" viewBox="0 0 64 64" fill="none" xmlns="http://www.w3.org/2000/svg">
<path d="M48 40H42.6667V45.3333H48M48 29.3333H42.6667V34.6667H48M53.3333 50.6667H32V45.3333H37.3333V40H32V34.6667H37.3333V29.3333H32V24H53.3333M26.6667 18.6667H21.3333V13.3333H26.6667M26.6667 29.3333H21.3333V24H26.6667M26.6667 40H21.3333V34.6667H26.6667M26.6667 50.6667H21.3333V45.3333H26.6667M16 18.6667H10.6667V13.3333H16M16 29.3333H10.6667V24H16M16 40H10.6667V34.6667H16M16 50.6667H10.6667V45.3333H16M32 18.6667V8H5.33334V56H58.6667V18.6667H32Z" fill="white"/>
</svg>
