<svg width="34" height="35" viewBox="0 0 34 35" fill="none" xmlns="http://www.w3.org/2000/svg">
<circle cx="17" cy="17.5" r="17" fill="white"/>
<path d="M28 17.5L25.6 14.7L25.9 11L22.3 10.2L20.4 7L17 8.5L13.6 7L11.7 10.2L8.1 11L8.4 14.7L6 17.5L8.4 20.3L8.1 24L11.7 24.8L13.6 28L17 26.5L20.4 28L22.3 24.8L25.9 24L25.6 20.3L28 17.5ZM23.7 22.4L21 23L19.6 25.4L17 24.3L14.4 25.4L13 23L10.3 22.4L10.5 19.6L8.7 17.5L10.5 15.4L10.3 12.6L13 12L14.4 9.6L17 10.7L19.6 9.6L21 12L23.7 12.6L23.5 15.4L25.3 17.5L23.5 19.6L23.7 22.4ZM21.6 13.1L23 14.5L15 22.5L11 18.5L12.4 17.1L15 19.7L21.6 13.1Z" fill="#131313"/>
</svg>
