<svg width="64" height="64" viewBox="0 0 64 64" fill="none" xmlns="http://www.w3.org/2000/svg">
<path d="M17.5479 5.33301C17.3593 12.3098 12.0796 17.5895 5.29132 17.5895V21.3608C14.5309 21.5493 21.6962 14.384 21.3191 5.33301H17.5479ZM5.29132 9.66994V13.4412C10.0054 13.2526 13.3995 9.8585 13.3995 5.33301H9.62825C9.25113 7.59575 7.55407 9.29279 5.29132 9.66994ZM58.7085 17.5895C51.9205 17.5895 46.6408 12.3098 46.452 5.33301H42.6808C42.3037 14.384 49.4691 21.5493 58.7085 21.3608V17.5895ZM58.7085 13.4412V9.66994C56.4459 9.29279 54.7488 7.59575 54.3717 5.33301H50.6005C50.6005 9.8585 53.9947 13.2526 58.7085 13.4412ZM50.6667 53.333V31.9997H58.6667L32 7.99967L5.33332 31.9997H13.3333V53.333H50.6667ZM32 15.1997L45.3333 27.1997V47.9997H18.6667V27.1997L32 15.1997Z" fill="white"/>
</svg>
