<svg width="64" height="64" viewBox="0 0 64 64" fill="none" xmlns="http://www.w3.org/2000/svg">
<path d="M26.6667 5.33301V11.3597L32 14.9063V10.6663H58.6667V50.6663H45.3333V55.9997H64V5.33301H26.6667ZM20 13.333L0 26.6663V55.9997H40V26.6663L20 13.333ZM37.3333 15.9997V18.4797L41.6267 21.333H42.6667V15.9997H37.3333ZM48 15.9997V21.333H53.3333V15.9997H48ZM20 19.9997L34.6667 29.333V50.6663H26.6667V34.6663H13.3333V50.6663H5.33333V29.333L20 19.9997ZM48 26.6663V31.9997H53.3333V26.6663H48ZM48 37.333V42.6663H53.3333V37.333H48Z" fill="white"/>
</svg>
