<svg width="64" height="64" viewBox="0 0 64 64" fill="none" xmlns="http://www.w3.org/2000/svg">
<path d="M60.2933 48.9604L48.96 60.2937L35.0933 46.427L39.8133 41.707L42.48 44.3737L49.0667 37.7604L52.8533 41.547L48.96 45.3337L51.7867 48.0004L55.5733 44.267L60.2933 48.9604ZM17.6267 28.8804L3.70667 15.0404L15.04 3.70703L19.7333 8.42703L13.1467 15.0404L16 17.867L22.56 11.2537L26.3467 15.0404L22.56 18.8004L25.2267 21.467L17.6267 28.8804ZM37.4933 24.0004L40 26.4804L15.7867 50.667H13.3333V48.2137L37.4933 24.0004ZM47.12 8.00036C46.4533 8.00036 45.76 8.24036 45.2267 8.7737L40.32 13.6537L50.32 23.6537L55.2267 18.667C56.2667 17.627 56.2667 16.0004 55.2267 14.907L48.9867 8.7737C48.48 8.26703 47.8133 8.00036 47.12 8.00036ZM37.4933 16.4804L8 46.0004V56.0004H18L47.4933 26.4804L37.4933 16.4804Z" fill="white"/>
</svg>
