<svg width="64" height="64" viewBox="0 0 64 64" fill="none" xmlns="http://www.w3.org/2000/svg">
<path d="M8 13.3333V56H24V52H18.6667V48H24V44H13.3333V40H24V36H18.6667V32H24V28H13.3333V24H24V13.3333H28V24H32V18.6667H36V24H40V13.3333H44V24H48V18.6667H52V24H56V8H13.3333C11.9188 8 10.5623 8.5619 9.5621 9.5621C8.5619 10.5623 8 11.9188 8 13.3333ZM16 18.6667C15.2928 18.6667 14.6145 18.3857 14.1144 17.8856C13.6143 17.3855 13.3333 16.7072 13.3333 16C13.3333 15.2928 13.6143 14.6145 14.1144 14.1144C14.6145 13.6143 15.2928 13.3333 16 13.3333C16.7072 13.3333 17.3855 13.6143 17.8856 14.1144C18.3857 14.6145 18.6667 15.2928 18.6667 16C18.6667 16.7072 18.3857 17.3855 17.8856 17.8856C17.3855 18.3857 16.7072 18.6667 16 18.6667Z" fill="#C1AE69"/>
</svg>
