<svg width="64" height="64" viewBox="0 0 64 64" fill="none" xmlns="http://www.w3.org/2000/svg">
<path d="M50.6667 24.0003V18.667C50.6667 14.267 47.0667 10.667 42.6667 10.667H21.3333C16.9333 10.667 13.3333 14.267 13.3333 18.667V24.0003C8.93334 24.0003 5.33334 27.6003 5.33334 32.0003V45.3337C5.33334 49.7337 8.93334 53.3337 13.3333 53.3337V58.667H18.6667V53.3337H45.3333V58.667H50.6667V53.3337C55.0667 53.3337 58.6667 49.7337 58.6667 45.3337V32.0003C58.6667 27.6003 55.0667 24.0003 50.6667 24.0003ZM18.6667 18.667C18.6667 17.2003 19.8667 16.0003 21.3333 16.0003H42.6667C44.1333 16.0003 45.3333 17.2003 45.3333 18.667V26.0803C43.7067 27.547 42.6667 29.6537 42.6667 32.0003V37.3337H21.3333V32.0003C21.3333 29.6537 20.2933 27.547 18.6667 26.0803V18.667ZM53.3333 45.3337C53.3333 46.8003 52.1333 48.0003 50.6667 48.0003H13.3333C11.8667 48.0003 10.6667 46.8003 10.6667 45.3337V32.0003C10.6667 30.5337 11.8667 29.3337 13.3333 29.3337C14.8 29.3337 16 30.5337 16 32.0003V42.667H48V32.0003C48 30.5337 49.2 29.3337 50.6667 29.3337C52.1333 29.3337 53.3333 30.5337 53.3333 32.0003V45.3337Z" fill="white"/>
</svg>
