<svg width="200" height="200" viewBox="0 0 200 200" fill="none" xmlns="http://www.w3.org/2000/svg">
<g opacity="0.12">
<path d="M150 125H133.333V141.667H150M150 91.6667H133.333V108.333H150M166.667 158.333H100V141.667H116.667V125H100V108.333H116.667V91.6667H100V75H166.667M83.3334 58.3333H66.6667V41.6667H83.3334M83.3334 91.6667H66.6667V75H83.3334M83.3334 125H66.6667V108.333H83.3334M83.3334 158.333H66.6667V141.667H83.3334M50.0001 58.3333H33.3334V41.6667H50.0001M50.0001 91.6667H33.3334V75H50.0001M50.0001 125H33.3334V108.333H50.0001M50.0001 158.333H33.3334V141.667H50.0001M100 58.3333V25H16.6667V175H183.333V58.3333H100Z" fill="white"/>
</g>
</svg>
