<svg width="200" height="200" viewBox="0 0 200 200" fill="none" xmlns="http://www.w3.org/2000/svg">
<g opacity="0.12">
<path d="M54.8371 16.667C54.2478 38.4695 37.7487 54.9686 16.5354 54.9686V66.7537C45.409 67.343 67.8007 44.9512 66.6222 16.667H54.8371ZM16.5354 30.2199V42.005C31.2668 41.4157 41.8734 30.8092 41.8734 16.667H30.0883C28.9098 23.7381 23.6065 29.0413 16.5354 30.2199ZM183.464 54.9686C162.252 54.9686 145.753 38.4695 145.162 16.667H133.377C132.199 44.9512 154.591 67.343 183.464 66.7537V54.9686ZM183.464 42.005V30.2199C176.393 29.0413 171.09 23.7381 169.912 16.667H158.127C158.127 30.8092 168.733 41.4157 183.464 42.005ZM158.333 166.667V100H183.333L100 25.0003L16.6667 100H41.6667V166.667H158.333ZM100 47.5003L141.667 85.0003V150H58.3333V85.0003L100 47.5003Z" fill="white"/>
</g>
</svg>
