<svg width="200" height="200" viewBox="0 0 200 200" fill="none" xmlns="http://www.w3.org/2000/svg">
<g opacity="0.12">
<path d="M188.417 153L153 188.416L109.667 145.083L124.417 130.333L132.75 138.666L153.333 118L165.167 129.833L153 141.666L161.833 150L173.667 138.333L188.417 153ZM55.0833 90.2497L11.5833 46.9997L46.9999 11.583L61.6666 26.333L41.0833 46.9997L49.9999 55.833L70.4999 35.1663L82.3332 46.9997L70.4999 58.7497L78.8332 67.083L55.0833 90.2497ZM117.167 74.9997L125 82.7497L49.3333 158.333H41.6666V150.666L117.167 74.9997ZM147.25 24.9997C145.167 24.9997 143 25.7497 141.333 27.4163L126 42.6663L157.25 73.9163L172.583 58.333C175.833 55.083 175.833 49.9997 172.583 46.583L153.083 27.4163C151.5 25.833 149.417 24.9997 147.25 24.9997ZM117.167 51.4997L24.9999 143.75V175H56.2499L148.417 82.7497L117.167 51.4997Z" fill="white"/>
</g>
</svg>
