<svg width="200" height="200" viewBox="0 0 200 200" fill="none" xmlns="http://www.w3.org/2000/svg">
<g opacity="0.12">
<path d="M25 41.6667V175H75V162.5H58.3333V150H75V137.5H41.6667V125H75V112.5H58.3333V100H75V87.5H41.6667V75H75V41.6667H87.5V75H100V58.3333H112.5V75H125V41.6667H137.5V75H150V58.3333H162.5V75H175V25H41.6667C37.2464 25 33.0072 26.7559 29.8816 29.8816C26.7559 33.0072 25 37.2464 25 41.6667ZM50 58.3333C47.7899 58.3333 45.6702 57.4554 44.1074 55.8926C42.5446 54.3298 41.6667 52.2101 41.6667 50C41.6667 47.7899 42.5446 45.6702 44.1074 44.1074C45.6702 42.5446 47.7899 41.6667 50 41.6667C52.2101 41.6667 54.3298 42.5446 55.8926 44.1074C57.4554 45.6702 58.3333 47.7899 58.3333 50C58.3333 52.2101 57.4554 54.3298 55.8926 55.8926C54.3298 57.4554 52.2101 58.3333 50 58.3333Z" fill="white"/>
</g>
</svg>
