<svg width="146" height="64" viewBox="0 0 146 64" fill="none" xmlns="http://www.w3.org/2000/svg">
<line y1="-0.3" x2="61" y2="-0.3" transform="matrix(-1 0 0 1 61 8)" stroke="#828282" stroke-width="0.6"/>
<line y1="-0.3" x2="61" y2="-0.3" transform="matrix(-1 0 0 1 61 56)" stroke="#828282" stroke-width="0.6"/>
<line y1="-0.3" x2="64" y2="-0.3" transform="matrix(0 -1 -1 0 53 64)" stroke="#828282" stroke-width="0.6"/>
<line y1="-0.3" x2="64" y2="-0.3" transform="matrix(0 -1 -1 0 9 64)" stroke="#828282" stroke-width="0.6"/>
<path d="M38 20L24 32.2449L38 44" stroke="white" stroke-width="0.6"/>
<line x1="85" y1="7.7" x2="146" y2="7.7" stroke="#828282" stroke-width="0.6"/>
<line x1="85" y1="55.7" x2="146" y2="55.7" stroke="#828282" stroke-width="0.6"/>
<line x1="92.7" y1="64" x2="92.7" stroke="#828282" stroke-width="0.6"/>
<line x1="136.7" y1="64" x2="136.7" stroke="#828282" stroke-width="0.6"/>
<path d="M108 20L122 32.2449L108 44" stroke="white" stroke-width="0.6"/>
</svg>
